<svg width="550" height="600" viewBox="0 0 550 600" fill="none" xmlns="http://www.w3.org/2000/svg">
<g clip-path="url(#clip0_34_100)">
<rect width="550" height="600" fill="white"/>
<rect x="100" width="100" height="100" transform="rotate(90 100 0)" fill="#F7E7CE"/>
<rect x="100" width="100" height="100" transform="rotate(90 100 0)" fill="#F7E7CE"/>
<path d="M100 100C100 86.8678 97.4134 73.8642 92.388 61.7317C87.3625 49.5991 79.9965 38.5752 70.7107 29.2893C61.4248 20.0035 50.4009 12.6375 38.2683 7.61205C26.1358 2.58658 13.1322 -5.74026e-07 -7.62939e-06 0L0 100H100Z" fill="#800020"/>
<rect x="100" y="500" width="100" height="100" transform="rotate(90 100 500)" fill="#F7E7CE"/>
<rect x="100" y="500" width="100" height="100" transform="rotate(90 100 500)" fill="#F7E7CE"/>
<path d="M100 600C100 586.868 97.4134 573.864 92.388 561.732C87.3625 549.599 79.9965 538.575 70.7107 529.289C61.4248 520.003 50.4009 512.638 38.2683 507.612C26.1358 502.587 13.1322 500 -7.62939e-06 500L0 600H100Z" fill="#800020"/>
<rect width="100" height="100" transform="matrix(0 -1 -1 0 400 400)" fill="#F7E7CE"/>
<rect width="100" height="100" transform="matrix(0 -1 -1 0 400 400)" fill="#F7E7CE"/>
<path d="M400 300C400 313.132 397.413 326.136 392.388 338.268C387.362 350.401 379.997 361.425 370.711 370.711C361.425 379.997 350.401 387.362 338.268 392.388C326.136 397.413 313.132 400 300 400L300 300H400Z" fill="#800020"/>
<rect y="400" width="100" height="100" transform="rotate(-90 0 400)" fill="#800020"/>
<rect y="400" width="100" height="100" transform="rotate(-90 0 400)" fill="#800020"/>
<path d="M0 300C0 313.132 2.58658 326.136 7.61205 338.268C12.6375 350.401 20.0035 361.425 29.2893 370.711C38.5752 379.997 49.5991 387.362 61.7317 392.388C73.8642 397.413 86.8678 400 100 400L100 300H0Z" fill="#F7E7CE"/>
<rect width="100" height="100" transform="matrix(0 1 1 0 100 0)" fill="#F7E7CE"/>
<rect width="100" height="100" transform="matrix(0 1 1 0 100 0)" fill="#F7E7CE"/>
<path d="M100 100C100 86.8678 102.587 73.8642 107.612 61.7317C112.638 49.5991 120.003 38.5752 129.289 29.2893C138.575 20.0035 149.599 12.6375 161.732 7.61205C173.864 2.58658 186.868 -5.74026e-07 200 0L200 100H100Z" fill="#800020"/>
<rect width="100" height="100" transform="matrix(0 1 1 0 0 100)" fill="#F7E7CE"/>
<rect width="100" height="100" transform="matrix(0 1 1 0 0 100)" fill="#F7E7CE"/>
<path d="M0 200C0 186.868 2.58658 173.864 7.61205 161.732C12.6375 149.599 20.0035 138.575 29.2893 129.289C38.5752 120.003 49.5991 112.638 61.7317 107.612C73.8642 102.587 86.8678 100 100 100L100 200H0Z" fill="#800020"/>
<path d="M0 200C0 186.868 2.58658 173.864 7.61205 161.732C12.6375 149.599 20.0035 138.575 29.2893 129.289C38.5752 120.003 49.5991 112.638 61.7317 107.612C73.8642 102.587 86.8678 100 100 100L100 200H0Z" fill="#800020"/>
<rect width="100" height="100" transform="matrix(0 1 1 0 500 300)" fill="#F7E7CE"/>
<rect width="100" height="100" transform="matrix(0 1 1 0 500 300)" fill="#F7E7CE"/>
<path d="M500 400C500 386.868 502.587 373.864 507.612 361.732C512.638 349.599 520.003 338.575 529.289 329.289C538.575 320.003 549.599 312.638 561.732 307.612C573.864 302.587 586.868 300 600 300L600 400H500Z" fill="#800020"/>
<rect width="100" height="100" transform="matrix(0 1 1 0 400 500)" fill="#F7E7CE"/>
<rect width="100" height="100" transform="matrix(0 1 1 0 400 500)" fill="#F7E7CE"/>
<path d="M400 600C400 586.868 402.587 573.864 407.612 561.732C412.638 549.599 420.003 538.575 429.289 529.289C438.575 520.003 449.599 512.638 461.732 507.612C473.864 502.587 486.868 500 500 500L500 600H400Z" fill="#800020"/>
<path d="M400 600C400 586.868 402.587 573.864 407.612 561.732C412.638 549.599 420.003 538.575 429.289 529.289C438.575 520.003 449.599 512.638 461.732 507.612C473.864 502.587 486.868 500 500 500L500 600H400Z" fill="#800020"/>
<rect width="100" height="100" transform="matrix(0 1 1 0 400 100)" fill="#800020"/>
<rect width="100" height="100" transform="matrix(0 1 1 0 400 100)" fill="#800020"/>
<path d="M400 200C400 186.868 402.587 173.864 407.612 161.732C412.638 149.599 420.003 138.575 429.289 129.289C438.575 120.003 449.599 112.638 461.732 107.612C473.864 102.587 486.868 100 500 100L500 200H400Z" fill="#F7E7CE"/>
<rect width="100" height="100" transform="matrix(0 1 1 0 200 500)" fill="#800020"/>
<rect width="100" height="100" transform="matrix(0 1 1 0 200 500)" fill="#800020"/>
<path d="M200 600C200 586.868 202.587 573.864 207.612 561.732C212.638 549.599 220.003 538.575 229.289 529.289C238.575 520.003 249.599 512.638 261.732 507.612C273.864 502.587 286.868 500 300 500L300 600H200Z" fill="#F7E7CE"/>
<rect width="100" height="100" transform="matrix(0 1 1 0 498 100)" fill="#F7E7CE"/>
<rect width="100" height="100" transform="matrix(0 1 1 0 498 100)" fill="#F7E7CE"/>
<rect width="100" height="100" transform="matrix(0 1 1 0 498 100)" fill="#F7E7CE"/>
<rect width="100" height="100" transform="matrix(0 1 1 0 498 100)" fill="#F7E7CE"/>
<path d="M498 200C498 186.868 500.587 173.864 505.612 161.732C510.638 149.599 518.003 138.575 527.289 129.289C536.575 120.003 547.599 112.638 559.732 107.612C571.864 102.587 584.868 100 598 100L598 200H498Z" fill="#800020"/>
<rect width="100" height="100" transform="matrix(0 1 1 0 100 400)" fill="#F7E7CE"/>
<rect width="100" height="100" transform="matrix(0 1 1 0 100 400)" fill="#F7E7CE"/>
<path d="M100 500C100 486.868 102.587 473.864 107.612 461.732C112.638 449.599 120.003 438.575 129.289 429.289C138.575 420.003 149.599 412.638 161.732 407.612C173.864 402.587 186.868 400 200 400L200 500H100Z" fill="#800020"/>
<rect width="100" height="100" transform="matrix(1 0 0 -1 100 200)" fill="#F7E7CE"/>
<rect width="100" height="100" transform="matrix(1 0 0 -1 100 200)" fill="#F7E7CE"/>
<path d="M200 200C186.868 200 173.864 197.413 161.732 192.388C149.599 187.362 138.575 179.997 129.289 170.711C120.003 161.425 112.638 150.401 107.612 138.268C102.587 126.136 100 113.132 100 100L200 100L200 200Z" fill="#800020"/>
<path d="M200 200C186.868 200 173.864 197.413 161.732 192.388C149.599 187.362 138.575 179.997 129.289 170.711C120.003 161.425 112.638 150.401 107.612 138.268C102.587 126.136 100 113.132 100 100L200 100L200 200Z" fill="#800020"/>
<rect width="100" height="100" transform="matrix(1 0 0 -1 500 500)" fill="#F7E7CE"/>
<rect width="100" height="100" transform="matrix(1 0 0 -1 500 500)" fill="#F7E7CE"/>
<path d="M600 500C586.868 500 573.864 497.413 561.732 492.388C549.599 487.362 538.575 479.997 529.289 470.711C520.003 461.425 512.638 450.401 507.612 438.268C502.587 426.136 500 413.132 500 400L600 400V500Z" fill="#800020"/>
<rect width="100" height="100" transform="matrix(1 0 0 -1 100 600)" fill="#F7E7CE"/>
<rect width="100" height="100" transform="matrix(1 0 0 -1 100 600)" fill="#F7E7CE"/>
<path d="M200 600C186.868 600 173.864 597.413 161.732 592.388C149.599 587.362 138.575 579.997 129.289 570.711C120.003 561.425 112.638 550.401 107.612 538.268C102.587 526.136 100 513.132 100 500L200 500L200 600Z" fill="#800020"/>
<rect x="200" width="100" height="100" fill="#F7E7CE"/>
<path d="M300 0C293.434 0 286.932 1.29329 280.866 3.80602C274.8 6.31876 269.288 10.0017 264.645 14.6447C260.002 19.2876 256.319 24.7996 253.806 30.8658C251.293 36.9321 250 43.4339 250 50C250 56.5661 251.293 63.0679 253.806 69.1342C256.319 75.2005 260.002 80.7124 264.645 85.3553C269.288 89.9983 274.8 93.6812 280.866 96.194C286.932 98.7067 293.434 100 300 100L300 50V0Z" fill="#800020"/>
<path d="M200 100C206.566 100 213.068 98.7067 219.134 96.194C225.2 93.6812 230.712 89.9983 235.355 85.3553C239.998 80.7124 243.681 75.2005 246.194 69.1342C248.707 63.0679 250 56.5661 250 50C250 43.4339 248.707 36.9321 246.194 30.8658C243.681 24.7996 239.998 19.2876 235.355 14.6447C230.712 10.0017 225.2 6.31876 219.134 3.80602C213.068 1.29329 206.566 0 200 0V50L200 100Z" fill="#800020"/>
<rect x="400" width="100" height="100" fill="#F7E7CE"/>
<path d="M500 0C493.434 0 486.932 1.29329 480.866 3.80602C474.8 6.31876 469.288 10.0017 464.645 14.6447C460.002 19.2876 456.319 24.7996 453.806 30.8658C451.293 36.9321 450 43.4339 450 50C450 56.5661 451.293 63.0679 453.806 69.1342C456.319 75.2005 460.002 80.7124 464.645 85.3553C469.288 89.9983 474.8 93.6812 480.866 96.194C486.932 98.7067 493.434 100 500 100L500 50V0Z" fill="#800020"/>
<path d="M400 100C406.566 100 413.068 98.7067 419.134 96.194C425.2 93.6812 430.712 89.9983 435.355 85.3553C439.998 80.7124 443.681 75.2005 446.194 69.1342C448.707 63.0679 450 56.5661 450 50C450 43.4339 448.707 36.9321 446.194 30.8658C443.681 24.7996 439.998 19.2876 435.355 14.6447C430.712 10.0017 425.2 6.31876 419.134 3.80602C413.068 1.29329 406.566 0 400 0V50L400 100Z" fill="#800020"/>
<rect x="400" y="400" width="100" height="100" fill="#F7E7CE"/>
<path d="M500 400C493.434 400 486.932 401.293 480.866 403.806C474.8 406.319 469.288 410.002 464.645 414.645C460.002 419.288 456.319 424.8 453.806 430.866C451.293 436.932 450 443.434 450 450C450 456.566 451.293 463.068 453.806 469.134C456.319 475.2 460.002 480.712 464.645 485.355C469.288 489.998 474.8 493.681 480.866 496.194C486.932 498.707 493.434 500 500 500L500 450V400Z" fill="#800020"/>
<path d="M400 500C406.566 500 413.068 498.707 419.134 496.194C425.2 493.681 430.712 489.998 435.355 485.355C439.998 480.712 443.681 475.2 446.194 469.134C448.707 463.068 450 456.566 450 450C450 443.434 448.707 436.932 446.194 430.866C443.681 424.8 439.998 419.288 435.355 414.645C430.712 410.002 425.2 406.319 419.134 403.806C413.068 401.293 406.566 400 400 400V450L400 500Z" fill="#800020"/>
<rect x="300" y="100" width="100" height="100" fill="#F7E7CE"/>
<path d="M400 100C393.434 100 386.932 101.293 380.866 103.806C374.8 106.319 369.288 110.002 364.645 114.645C360.002 119.288 356.319 124.8 353.806 130.866C351.293 136.932 350 143.434 350 150C350 156.566 351.293 163.068 353.806 169.134C356.319 175.2 360.002 180.712 364.645 185.355C369.288 189.998 374.8 193.681 380.866 196.194C386.932 198.707 393.434 200 400 200L400 150V100Z" fill="#800020"/>
<path d="M300 200C306.566 200 313.068 198.707 319.134 196.194C325.2 193.681 330.712 189.998 335.355 185.355C339.998 180.712 343.681 175.2 346.194 169.134C348.707 163.068 350 156.566 350 150C350 143.434 348.707 136.932 346.194 130.866C343.681 124.8 339.998 119.288 335.355 114.645C330.712 110.002 325.2 106.319 319.134 103.806C313.068 101.293 306.566 100 300 100V150L300 200Z" fill="#800020"/>
<rect y="200" width="100" height="100" fill="#F7E7CE"/>
<path d="M100 200C93.4339 200 86.9321 201.293 80.8658 203.806C74.7995 206.319 69.2876 210.002 64.6447 214.645C60.0017 219.288 56.3188 224.8 53.806 230.866C51.2933 236.932 50 243.434 50 250C50 256.566 51.2933 263.068 53.806 269.134C56.3188 275.2 60.0017 280.712 64.6447 285.355C69.2876 289.998 74.7996 293.681 80.8658 296.194C86.9321 298.707 93.4339 300 100 300L100 250V200Z" fill="#800020"/>
<path d="M-3.8147e-06 300C6.56609 300 13.0679 298.707 19.1342 296.194C25.2004 293.681 30.7124 289.998 35.3553 285.355C39.9983 280.712 43.6812 275.2 46.194 269.134C48.7067 263.068 50 256.566 50 250C50 243.434 48.7067 236.932 46.194 230.866C43.6812 224.8 39.9983 219.288 35.3553 214.645C30.7124 210.002 25.2005 206.319 19.1342 203.806C13.0679 201.293 6.56609 200 0 200L0 250L-3.8147e-06 300Z" fill="#800020"/>
<rect x="100" y="300" width="100" height="100" fill="#F7E7CE"/>
<path d="M200 300C193.434 300 186.932 301.293 180.866 303.806C174.8 306.319 169.288 310.002 164.645 314.645C160.002 319.288 156.319 324.8 153.806 330.866C151.293 336.932 150 343.434 150 350C150 356.566 151.293 363.068 153.806 369.134C156.319 375.2 160.002 380.712 164.645 385.355C169.288 389.998 174.8 393.681 180.866 396.194C186.932 398.707 193.434 400 200 400L200 350V300Z" fill="#800020"/>
<path d="M100 400C106.566 400 113.068 398.707 119.134 396.194C125.2 393.681 130.712 389.998 135.355 385.355C139.998 380.712 143.681 375.2 146.194 369.134C148.707 363.068 150 356.566 150 350C150 343.434 148.707 336.932 146.194 330.866C143.681 324.8 139.998 319.288 135.355 314.645C130.712 310.002 125.2 306.319 119.134 303.806C113.068 301.293 106.566 300 100 300V350L100 400Z" fill="#800020"/>
<rect x="498" y="500" width="100" height="100" fill="#F7E7CE"/>
<path d="M598 500C591.434 500 584.932 501.293 578.866 503.806C572.8 506.319 567.288 510.002 562.645 514.645C558.002 519.288 554.319 524.8 551.806 530.866C549.293 536.932 548 543.434 548 550C548 556.566 549.293 563.068 551.806 569.134C554.319 575.2 558.002 580.712 562.645 585.355C567.288 589.998 572.8 593.681 578.866 596.194C584.932 598.707 591.434 600 598 600L598 550V500Z" fill="#800020"/>
<path d="M498 600C504.566 600 511.068 598.707 517.134 596.194C523.2 593.681 528.712 589.998 533.355 585.355C537.998 580.712 541.681 575.2 544.194 569.134C546.707 563.068 548 556.566 548 550C548 543.434 546.707 536.932 544.194 530.866C541.681 524.8 537.998 519.288 533.355 514.645C528.712 510.002 523.2 506.319 517.134 503.806C511.068 501.293 504.566 500 498 500V550L498 600Z" fill="#800020"/>
<rect x="200" y="200" width="100" height="100" fill="#F7E7CE"/>
<path d="M300 200C293.434 200 286.932 201.293 280.866 203.806C274.8 206.319 269.288 210.002 264.645 214.645C260.002 219.288 256.319 224.8 253.806 230.866C251.293 236.932 250 243.434 250 250C250 256.566 251.293 263.068 253.806 269.134C256.319 275.2 260.002 280.712 264.645 285.355C269.288 289.998 274.8 293.681 280.866 296.194C286.932 298.707 293.434 300 300 300L300 250V200Z" fill="#800020"/>
<path d="M200 300C206.566 300 213.068 298.707 219.134 296.194C225.2 293.681 230.712 289.998 235.355 285.355C239.998 280.712 243.681 275.2 246.194 269.134C248.707 263.068 250 256.566 250 250C250 243.434 248.707 236.932 246.194 230.866C243.681 224.8 239.998 219.288 235.355 214.645C230.712 210.002 225.2 206.319 219.134 203.806C213.068 201.293 206.566 200 200 200V250L200 300Z" fill="#800020"/>
<rect x="400" y="200" width="100" height="100" fill="#F7E7CE"/>
<path d="M500 200C493.434 200 486.932 201.293 480.866 203.806C474.8 206.319 469.288 210.002 464.645 214.645C460.002 219.288 456.319 224.8 453.806 230.866C451.293 236.932 450 243.434 450 250C450 256.566 451.293 263.068 453.806 269.134C456.319 275.2 460.002 280.712 464.645 285.355C469.288 289.998 474.8 293.681 480.866 296.194C486.932 298.707 493.434 300 500 300L500 250V200Z" fill="#800020"/>
<path d="M400 300C406.566 300 413.068 298.707 419.134 296.194C425.2 293.681 430.712 289.998 435.355 285.355C439.998 280.712 443.681 275.2 446.194 269.134C448.707 263.068 450 256.566 450 250C450 243.434 448.707 236.932 446.194 230.866C443.681 224.8 439.998 219.288 435.355 214.645C430.712 210.002 425.2 206.319 419.134 203.806C413.068 201.293 406.566 200 400 200V250L400 300Z" fill="#800020"/>
<rect x="200" y="400" width="100" height="100" fill="#F7E7CE"/>
<path d="M300 400C293.434 400 286.932 401.293 280.866 403.806C274.8 406.319 269.288 410.002 264.645 414.645C260.002 419.288 256.319 424.8 253.806 430.866C251.293 436.932 250 443.434 250 450C250 456.566 251.293 463.068 253.806 469.134C256.319 475.2 260.002 480.712 264.645 485.355C269.288 489.998 274.8 493.681 280.866 496.194C286.932 498.707 293.434 500 300 500L300 450V400Z" fill="#800020"/>
<path d="M200 500C206.566 500 213.068 498.707 219.134 496.194C225.2 493.681 230.712 489.998 235.355 485.355C239.998 480.712 243.681 475.2 246.194 469.134C248.707 463.068 250 456.566 250 450C250 443.434 248.707 436.932 246.194 430.866C243.681 424.8 239.998 419.288 235.355 414.645C230.712 410.002 225.2 406.319 219.134 403.806C213.068 401.293 206.566 400 200 400V450L200 500Z" fill="#800020"/>
<rect x="400" width="100" height="100" transform="rotate(90 400 0)" fill="#800020"/>
<path d="M400 100C400 93.4339 398.707 86.9321 396.194 80.8658C393.681 74.7995 389.998 69.2876 385.355 64.6447C380.712 60.0017 375.2 56.3188 369.134 53.806C363.068 51.2933 356.566 50 350 50C343.434 50 336.932 51.2933 330.866 53.806C324.8 56.3188 319.288 60.0017 314.645 64.6447C310.002 69.2876 306.319 74.7996 303.806 80.8658C301.293 86.9321 300 93.4339 300 100L350 100L400 100Z" fill="#F7E7CE"/>
<path d="M300 -3.8147e-06C300 6.56609 301.293 13.0679 303.806 19.1342C306.319 25.2004 310.002 30.7124 314.645 35.3553C319.288 39.9983 324.8 43.6812 330.866 46.194C336.932 48.7067 343.434 50 350 50C356.566 50 363.068 48.7067 369.134 46.194C375.2 43.6812 380.712 39.9983 385.355 35.3553C389.998 30.7124 393.681 25.2005 396.194 19.1342C398.707 13.0679 400 6.56609 400 0L350 0L300 -3.8147e-06Z" fill="#F7E7CE"/>
<rect x="300" y="100" width="100" height="100" transform="rotate(90 300 100)" fill="#800020"/>
<path d="M300 200C300 193.434 298.707 186.932 296.194 180.866C293.681 174.8 289.998 169.288 285.355 164.645C280.712 160.002 275.2 156.319 269.134 153.806C263.068 151.293 256.566 150 250 150C243.434 150 236.932 151.293 230.866 153.806C224.8 156.319 219.288 160.002 214.645 164.645C210.002 169.288 206.319 174.8 203.806 180.866C201.293 186.932 200 193.434 200 200L250 200H300Z" fill="#F7E7CE"/>
<path d="M200 100C200 106.566 201.293 113.068 203.806 119.134C206.319 125.2 210.002 130.712 214.645 135.355C219.288 139.998 224.8 143.681 230.866 146.194C236.932 148.707 243.434 150 250 150C256.566 150 263.068 148.707 269.134 146.194C275.2 143.681 280.712 139.998 285.355 135.355C289.998 130.712 293.681 125.2 296.194 119.134C298.707 113.068 300 106.566 300 100L250 100L200 100Z" fill="#F7E7CE"/>
<rect x="300" y="300" width="100" height="100" transform="rotate(90 300 300)" fill="#800020"/>
<path d="M300 400C300 393.434 298.707 386.932 296.194 380.866C293.681 374.8 289.998 369.288 285.355 364.645C280.712 360.002 275.2 356.319 269.134 353.806C263.068 351.293 256.566 350 250 350C243.434 350 236.932 351.293 230.866 353.806C224.8 356.319 219.288 360.002 214.645 364.645C210.002 369.288 206.319 374.8 203.806 380.866C201.293 386.932 200 393.434 200 400L250 400H300Z" fill="#F7E7CE"/>
<path d="M200 300C200 306.566 201.293 313.068 203.806 319.134C206.319 325.2 210.002 330.712 214.645 335.355C219.288 339.998 224.8 343.681 230.866 346.194C236.932 348.707 243.434 350 250 350C256.566 350 263.068 348.707 269.134 346.194C275.2 343.681 280.712 339.998 285.355 335.355C289.998 330.712 293.681 325.2 296.194 319.134C298.707 313.068 300 306.566 300 300H250L200 300Z" fill="#F7E7CE"/>
<rect x="200" y="200" width="100" height="100" transform="rotate(90 200 200)" fill="#800020"/>
<path d="M200 300C200 293.434 198.707 286.932 196.194 280.866C193.681 274.8 189.998 269.288 185.355 264.645C180.712 260.002 175.2 256.319 169.134 253.806C163.068 251.293 156.566 250 150 250C143.434 250 136.932 251.293 130.866 253.806C124.8 256.319 119.288 260.002 114.645 264.645C110.002 269.288 106.319 274.8 103.806 280.866C101.293 286.932 100 293.434 100 300L150 300H200Z" fill="#F7E7CE"/>
<path d="M100 200C100 206.566 101.293 213.068 103.806 219.134C106.319 225.2 110.002 230.712 114.645 235.355C119.288 239.998 124.8 243.681 130.866 246.194C136.932 248.707 143.434 250 150 250C156.566 250 163.068 248.707 169.134 246.194C175.2 243.681 180.712 239.998 185.355 235.355C189.998 230.712 193.681 225.2 196.194 219.134C198.707 213.068 200 206.566 200 200H150L100 200Z" fill="#F7E7CE"/>
<rect x="100" y="500" width="100" height="100" transform="rotate(-180 100 500)" fill="#800020"/>
<path d="M0 500C6.56609 500 13.0679 498.707 19.1342 496.194C25.2005 493.681 30.7124 489.998 35.3553 485.355C39.9983 480.712 43.6812 475.2 46.194 469.134C48.7067 463.068 50 456.566 50 450C50 443.434 48.7067 436.932 46.194 430.866C43.6812 424.8 39.9983 419.288 35.3553 414.645C30.7124 410.002 25.2004 406.319 19.1342 403.806C13.0679 401.293 6.56609 400 -3.8147e-06 400L0 450L0 500Z" fill="#F7E7CE"/>
<path d="M100 400C93.4339 400 86.9321 401.293 80.8658 403.806C74.7996 406.319 69.2876 410.002 64.6447 414.645C60.0017 419.288 56.3188 424.8 53.806 430.866C51.2933 436.932 50 443.434 50 450C50 456.566 51.2933 463.068 53.806 469.134C56.3188 475.2 60.0017 480.712 64.6447 485.355C69.2876 489.998 74.7995 493.681 80.8658 496.194C86.9321 498.707 93.4339 500 100 500L100 450L100 400Z" fill="#F7E7CE"/>
<rect x="400" y="400" width="100" height="100" transform="rotate(90 400 400)" fill="#800020"/>
<path d="M400 500C400 493.434 398.707 486.932 396.194 480.866C393.681 474.8 389.998 469.288 385.355 464.645C380.712 460.002 375.2 456.319 369.134 453.806C363.068 451.293 356.566 450 350 450C343.434 450 336.932 451.293 330.866 453.806C324.8 456.319 319.288 460.002 314.645 464.645C310.002 469.288 306.319 474.8 303.806 480.866C301.293 486.932 300 493.434 300 500L350 500H400Z" fill="#F7E7CE"/>
<path d="M300 400C300 406.566 301.293 413.068 303.806 419.134C306.319 425.2 310.002 430.712 314.645 435.355C319.288 439.998 324.8 443.681 330.866 446.194C336.932 448.707 343.434 450 350 450C356.566 450 363.068 448.707 369.134 446.194C375.2 443.681 380.712 439.998 385.355 435.355C389.998 430.712 393.681 425.2 396.194 419.134C398.707 413.068 400 406.566 400 400H350L300 400Z" fill="#F7E7CE"/>
<rect x="400" y="200" width="100" height="100" transform="rotate(90 400 200)" fill="#800020"/>
<path d="M400 300C400 293.434 398.707 286.932 396.194 280.866C393.681 274.8 389.998 269.288 385.355 264.645C380.712 260.002 375.2 256.319 369.134 253.806C363.068 251.293 356.566 250 350 250C343.434 250 336.932 251.293 330.866 253.806C324.8 256.319 319.288 260.002 314.645 264.645C310.002 269.288 306.319 274.8 303.806 280.866C301.293 286.932 300 293.434 300 300L350 300H400Z" fill="#F7E7CE"/>
<path d="M300 200C300 206.566 301.293 213.068 303.806 219.134C306.319 225.2 310.002 230.712 314.645 235.355C319.288 239.998 324.8 243.681 330.866 246.194C336.932 248.707 343.434 250 350 250C356.566 250 363.068 248.707 369.134 246.194C375.2 243.681 380.712 239.998 385.355 235.355C389.998 230.712 393.681 225.2 396.194 219.134C398.707 213.068 400 206.566 400 200H350L300 200Z" fill="#F7E7CE"/>
<rect x="600" y="100" width="100" height="100" transform="rotate(-180 600 100)" fill="#800020"/>
<path d="M500 100C506.566 100 513.068 98.7067 519.134 96.194C525.2 93.6812 530.712 89.9983 535.355 85.3553C539.998 80.7124 543.681 75.2004 546.194 69.1342C548.707 63.0679 550 56.5661 550 50C550 43.4339 548.707 36.9321 546.194 30.8658C543.681 24.7995 539.998 19.2876 535.355 14.6447C530.712 10.0017 525.2 6.31876 519.134 3.80602C513.068 1.29329 506.566 -5.74026e-07 500 0L500 50V100Z" fill="#F7E7CE"/>
<rect x="600" y="300" width="100" height="100" transform="rotate(-180 600 300)" fill="#800020"/>
<path d="M500 300C506.566 300 513.068 298.707 519.134 296.194C525.2 293.681 530.712 289.998 535.355 285.355C539.998 280.712 543.681 275.2 546.194 269.134C548.707 263.068 550 256.566 550 250C550 243.434 548.707 236.932 546.194 230.866C543.681 224.8 539.998 219.288 535.355 214.645C530.712 210.002 525.2 206.319 519.134 203.806C513.068 201.293 506.566 200 500 200L500 250V300Z" fill="#F7E7CE"/>
<rect x="500" y="400" width="100" height="100" transform="rotate(-180 500 400)" fill="#800020"/>
<path d="M400 400C406.566 400 413.068 398.707 419.134 396.194C425.2 393.681 430.712 389.998 435.355 385.355C439.998 380.712 443.681 375.2 446.194 369.134C448.707 363.068 450 356.566 450 350C450 343.434 448.707 336.932 446.194 330.866C443.681 324.8 439.998 319.288 435.355 314.645C430.712 310.002 425.2 306.319 419.134 303.806C413.068 301.293 406.566 300 400 300L400 350V400Z" fill="#F7E7CE"/>
<path d="M500 300C493.434 300 486.932 301.293 480.866 303.806C474.8 306.319 469.288 310.002 464.645 314.645C460.002 319.288 456.319 324.8 453.806 330.866C451.293 336.932 450 343.434 450 350C450 356.566 451.293 363.068 453.806 369.134C456.319 375.2 460.002 380.712 464.645 385.355C469.288 389.998 474.8 393.681 480.866 396.194C486.932 398.707 493.434 400 500 400V350L500 300Z" fill="#F7E7CE"/>
<rect x="400" y="600" width="100" height="100" transform="rotate(-180 400 600)" fill="#800020"/>
<path d="M300 600C306.566 600 313.068 598.707 319.134 596.194C325.2 593.681 330.712 589.998 335.355 585.355C339.998 580.712 343.681 575.2 346.194 569.134C348.707 563.068 350 556.566 350 550C350 543.434 348.707 536.932 346.194 530.866C343.681 524.8 339.998 519.288 335.355 514.645C330.712 510.002 325.2 506.319 319.134 503.806C313.068 501.293 306.566 500 300 500L300 550V600Z" fill="#F7E7CE"/>
<path d="M400 500C393.434 500 386.932 501.293 380.866 503.806C374.8 506.319 369.288 510.002 364.645 514.645C360.002 519.288 356.319 524.8 353.806 530.866C351.293 536.932 350 543.434 350 550C350 556.566 351.293 563.068 353.806 569.134C356.319 575.2 360.002 580.712 364.645 585.355C369.288 589.998 374.8 593.681 380.866 596.194C386.932 598.707 393.434 600 400 600V550L400 500Z" fill="#F7E7CE"/>
</g>
<defs>
<clipPath id="clip0_34_100">
<rect width="550" height="600" fill="white"/>
</clipPath>
</defs>
</svg>
